<?xml version="1.0" encoding="UTF-8" standalone="no"?>
<!DOCTYPE svg PUBLIC "-//W3C//DTD SVG 1.1//EN" "http://www.w3.org/Graphics/SVG/1.1/DTD/svg11.dtd">
<svg width="1200" height="630" viewBox="0 0 320 320" version="1.1" xmlns="http://www.w3.org/2000/svg">
<style>
  polygon {
    fill: #535353;
  }
  @media (prefers-color-scheme: dark) {
    polygon {
      fill: #acacac;
    }
  }
</style>
<g>
  <polygon points="209.09 39.28 190.03 39.28 190.03 21.51 174.48 14.96 158.94 14.96 158.94 110.82 142.89 110.82 142.89 125.32 119.32 125.32 119.32 140.28 95.74 140.28 95.74 155.24 79.69 155.24 79.69 169.74 50.60 169.74 50.60 154.78 35.06 154.78 35.06 140.28 19.01 140.28 19.01 110.82 0.00 110.82 0.00 201.54 16.50 201.54 16.50 216.50 32.55 216.50 32.55 230.99 48.10 230.99 48.10 245.96 64.15 245.96 64.15 260.45 79.69 260.45 79.69 320.00 113.80 320.00 113.80 302.54 98.25 302.54 98.25 289.91 113.80 289.91 113.80 275.42 129.85 275.42 129.85 260.45 142.89 260.45 142.89 275.42 158.94 275.42 158.94 320.00 193.04 320.00 193.04 302.54 176.99 302.54 176.99 245.96 193.04 245.96 193.04 230.99 208.59 230.99 208.59 209.02 224.64 209.02 224.64 157.58 237.68 157.58 237.68 172.08 256.24 172.08 256.24 140.28 224.64 140.28 224.64 113.16 287.83 113.16 287.83 95.86 240.19 95.86 240.19 83.70 320.00 83.70 320.00 14.96 303.38 14.96 303.38 0.00 174.48 0.00 174.48 14.96 190.03 21.51 209.09 21.51 209.09 39.28"/>
</g>
</svg>
